<svg width="54" height="42" viewBox="0 0 54 42" fill="none" xmlns="http://www.w3.org/2000/svg">
<path d="M14.2039 22.7478V7.60194C14.2039 3.71845 11.0971 1 7.60194 1C4.49505 1 1 3.3301 1 7.99029L1 34.3982C1 38.6699 4.8835 41 8.18447 41C14.7864 41 27.7961 34.9808 27.7961 19.2527L27.7961 34.3981C27.7961 37.8932 30.5146 41 34.3981 41C37.8932 41 41 38.2816 41 34.3981V7.79612C41 3.13597 36.7282 1 33.6214 1C25.8544 1 14.2039 6.43707 14.2039 22.7478Z" fill="#818CF8"></path>
<path d="M13.2041 7.60156C13.2039 4.30864 10.5832 2 7.60156 2C4.9702 2.00019 2.00003 3.95641 2 7.99023V34.3984C2.00013 37.9281 5.22502 40 8.18457 40C11.2367 40 15.9119 38.5869 19.8174 35.2627C23.6852 31.9705 26.7958 26.8065 26.7959 19.2529V14.5928C26.7959 14.0406 27.2437 13.5929 27.7959 13.5928C28.3482 13.5928 28.7959 14.0405 28.7959 14.5928V34.3984C28.7961 37.38 31.1055 40 34.3984 40C37.3799 39.9998 39.9998 37.6912 40 34.3984V7.7959C39.9999 5.81316 39.1068 4.39471 37.8672 3.44434C36.5984 2.47163 34.9714 2 33.6211 2C29.9465 2.00006 25.3357 3.29192 21.6582 6.50977C18.0106 9.7015 15.2041 14.8551 15.2041 22.748V27.2139C15.204 27.766 14.7563 28.2137 14.2041 28.2139C13.6519 28.2139 13.2042 27.7661 13.2041 27.2139V7.60156ZM15.2041 12.127C16.475 9.16785 18.2691 6.81849 20.3418 5.00488C24.4311 1.42675 29.5288 6.11652e-05 33.6211 0C35.3774 0 37.4402 0.596305 39.084 1.85645C40.7569 3.13902 41.9999 5.11874 42 7.7959V34.3984C41.9998 38.872 38.4067 41.9998 34.3984 42C29.9247 42 26.7961 38.4068 26.7959 34.3984V29.209C25.398 32.3504 23.3813 34.8565 21.1143 36.7861C16.8646 40.4033 11.7343 42 8.18457 42C4.54228 42 0.000124414 39.4118 0 34.3984V7.99023C2.90063e-05 2.70413 4.01936 0.00019099 7.60156 0C11.61 0 15.2039 3.1279 15.2041 7.60156V12.127Z" fill="white"></path>
<path d="M50 33.5C50 31.0147 47.9853 29 45.5 29C43.0147 29 41 31.0147 41 33.5C41 35.9853 43.0147 38 45.5 38C47.9853 38 50 35.9853 50 33.5ZM54 33.5C54 38.1944 50.1944 42 45.5 42C40.8056 42 37 38.1944 37 33.5C37 28.8056 40.8056 25 45.5 25C50.1944 25 54 28.8056 54 33.5Z" fill="white"></path>
<path d="M52 33.5C52 37.0899 49.0899 40 45.5 40C41.9101 40 39 37.0899 39 33.5C39 29.9101 41.9101 27 45.5 27C49.0899 27 52 29.9101 52 33.5Z" fill="#3730A3"></path>
<path d="M50 33.5C50 31.0147 47.9853 29 45.5 29C43.0147 29 41 31.0147 41 33.5C41 35.9853 43.0147 38 45.5 38V40C41.9101 40 39 37.0899 39 33.5C39 29.9101 41.9101 27 45.5 27C49.0899 27 52 29.9101 52 33.5C52 37.0899 49.0899 40 45.5 40V38C47.9853 38 50 35.9853 50 33.5Z" fill="#818CF8"></path>
</svg>